{
	"asset":{
		"generator":"Khronos glTF Blender I/O v4.2.57",
		"version":"2.0"
	},
	"scene":0,
	"scenes":[
		{
			"name":"Scene",
			"nodes":[
				0
			]
		}
	],
	"nodes":[
		{
			"mesh":0,
			"name":"Text",
			"rotation":[
				0.7071068286895752,
				0,
				0,
				0.7071068286895752
			],
			"translation":[
				-0.16816198825836182,
				0.28203287720680237,
				0
			]
		}
	],
	"materials":[
		{
			"doubleSided":true,
			"name":"Material.001",
			"pbrMetallicRoughness":{
				"baseColorFactor":[
					0,
					0,
					0,
					1
				]
			}
		},
		{
			"doubleSided":true,
			"name":"Material.002",
			"pbrMetallicRoughness":{
				"metallicFactor":0,
				"roughnessFactor":0.5
			}
		}
	],
	"meshes":[
		{
			"name":"Text",
			"primitives":[
				{
					"attributes":{
						"POSITION":0,
						"NORMAL":1,
						"TEXCOORD_0":2
					},
					"indices":3,
					"material":0
				},
				{
					"attributes":{
						"POSITION":4,
						"NORMAL":5,
						"TEXCOORD_0":6
					},
					"indices":7,
					"material":1
				}
			]
		}
	],
	"accessors":[
		{
			"bufferView":0,
			"componentType":5126,
			"count":78133,
			"max":[
				2.4449777603149414,
				0.13191011548042297,
				0.3960520625114441
			],
			"min":[
				-1.9072911739349365,
				-0.13191011548042297,
				-0.2905227839946747
			],
			"type":"VEC3"
		},
		{
			"bufferView":1,
			"componentType":5126,
			"count":78133,
			"type":"VEC3"
		},
		{
			"bufferView":2,
			"componentType":5126,
			"count":78133,
			"type":"VEC2"
		},
		{
			"bufferView":3,
			"componentType":5125,
			"count":183048,
			"type":"SCALAR"
		},
		{
			"bufferView":4,
			"componentType":5126,
			"count":26737,
			"max":[
				2.4449777603149414,
				0.13191011548042297,
				0.3960520625114441
			],
			"min":[
				-1.9072911739349365,
				-0.13191011548042297,
				-0.2905227839946747
			],
			"type":"VEC3"
		},
		{
			"bufferView":5,
			"componentType":5126,
			"count":26737,
			"type":"VEC3"
		},
		{
			"bufferView":6,
			"componentType":5126,
			"count":26737,
			"type":"VEC2"
		},
		{
			"bufferView":7,
			"componentType":5123,
			"count":60912,
			"type":"SCALAR"
		}
	],
	"bufferViews":[
		{
			"buffer":0,
			"byteLength":937596,
			"byteOffset":0,
			"target":34962
		},
		{
			"buffer":0,
			"byteLength":937596,
			"byteOffset":937596,
			"target":34962
		},
		{
			"buffer":0,
			"byteLength":625064,
			"byteOffset":1875192,
			"target":34962
		},
		{
			"buffer":0,
			"byteLength":732192,
			"byteOffset":2500256,
			"target":34963
		},
		{
			"buffer":0,
			"byteLength":320844,
			"byteOffset":3232448,
			"target":34962
		},
		{
			"buffer":0,
			"byteLength":320844,
			"byteOffset":3553292,
			"target":34962
		},
		{
			"buffer":0,
			"byteLength":213896,
			"byteOffset":3874136,
			"target":34962
		},
		{
			"buffer":0,
			"byteLength":121824,
			"byteOffset":4088032,
			"target":34963
		}
	],
	"buffers":[
		{
			"byteLength":4209856,
			"uri":"intro.bin"
		}
	]
}
