{
	"asset":{
		"generator":"Khronos glTF Blender I/O v4.2.57",
		"version":"2.0"
	},
	"scene":0,
	"scenes":[
		{
			"name":"Scene",
			"nodes":[
				0
			]
		}
	],
	"nodes":[
		{
			"mesh":0,
			"name":"Text",
			"rotation":[
				0.6927778720855713,
				0.03538781777024269,
				-0.058455388993024826,
				0.7179063558578491
			],
			"translation":[
				0.3695499300956726,
				0.07352995872497559,
				0.08573800325393677
			]
		}
	],
	"materials":[
		{
			"doubleSided":true,
			"name":"Material.001",
			"pbrMetallicRoughness":{
				"baseColorFactor":[
					0,
					0,
					0,
					1
				],
				"metallicFactor":0
			}
		},
		{
			"doubleSided":true,
			"name":"borde",
			"pbrMetallicRoughness":{
				"baseColorFactor":[
					0.800000011920929,
					0.800000011920929,
					0.800000011920929,
					1
				],
				"metallicFactor":0
			}
		}
	],
	"meshes":[
		{
			"name":"Text",
			"primitives":[
				{
					"attributes":{
						"POSITION":0,
						"NORMAL":1,
						"TEXCOORD_0":2
					},
					"indices":3,
					"material":0
				},
				{
					"attributes":{
						"POSITION":4,
						"NORMAL":5,
						"TEXCOORD_0":6
					},
					"indices":7,
					"material":1
				}
			]
		}
	],
	"accessors":[
		{
			"bufferView":0,
			"componentType":5126,
			"count":195296,
			"max":[
				1.4947084188461304,
				0.12510992586612701,
				0.5769336223602295
			],
			"min":[
				-1.2488950490951538,
				-0.08804222196340561,
				-0.7207345962524414
			],
			"type":"VEC3"
		},
		{
			"bufferView":1,
			"componentType":5126,
			"count":195296,
			"type":"VEC3"
		},
		{
			"bufferView":2,
			"componentType":5126,
			"count":195296,
			"type":"VEC2"
		},
		{
			"bufferView":3,
			"componentType":5125,
			"count":326916,
			"type":"SCALAR"
		},
		{
			"bufferView":4,
			"componentType":5126,
			"count":42266,
			"max":[
				1.4895354509353638,
				0.12510959804058075,
				0.5769336223602295
			],
			"min":[
				-1.2488950490951538,
				-0.07207346707582474,
				-0.7204059362411499
			],
			"type":"VEC3"
		},
		{
			"bufferView":5,
			"componentType":5126,
			"count":42266,
			"type":"VEC3"
		},
		{
			"bufferView":6,
			"componentType":5126,
			"count":42266,
			"type":"VEC2"
		},
		{
			"bufferView":7,
			"componentType":5123,
			"count":81384,
			"type":"SCALAR"
		}
	],
	"bufferViews":[
		{
			"buffer":0,
			"byteLength":2343552,
			"byteOffset":0,
			"target":34962
		},
		{
			"buffer":0,
			"byteLength":2343552,
			"byteOffset":2343552,
			"target":34962
		},
		{
			"buffer":0,
			"byteLength":1562368,
			"byteOffset":4687104,
			"target":34962
		},
		{
			"buffer":0,
			"byteLength":1307664,
			"byteOffset":6249472,
			"target":34963
		},
		{
			"buffer":0,
			"byteLength":507192,
			"byteOffset":7557136,
			"target":34962
		},
		{
			"buffer":0,
			"byteLength":507192,
			"byteOffset":8064328,
			"target":34962
		},
		{
			"buffer":0,
			"byteLength":338128,
			"byteOffset":8571520,
			"target":34962
		},
		{
			"buffer":0,
			"byteLength":162768,
			"byteOffset":8909648,
			"target":34963
		}
	],
	"buffers":[
		{
			"byteLength":9072416,
			"uri":"myname.bin"
		}
	]
}
