{
	"asset":{
		"generator":"Khronos glTF Blender I/O v4.1.63",
		"version":"2.0"
	},
	"scene":0,
	"scenes":[
		{
			"name":"Scene",
			"nodes":[
				0
			]
		}
	],
	"nodes":[
		{
			"mesh":0,
			"name":"Curve",
			"rotation":[
				0.692266583442688,
				0.024036142975091934,
				-0.023082347586750984,
				0.7208720445632935
			],
			"scale":[
				13.917561531066895,
				1,
				13.747126579284668
			],
			"translation":[
				1.6415513753890991,
				1.3021703958511353,
				-0.4909602701663971
			]
		}
	],
	"materials":[
		{
			"doubleSided":true,
			"name":"SVGMat.001",
			"pbrMetallicRoughness":{
				"baseColorFactor":[
					0.011612244881689548,
					0.020288562402129173,
					0.07227185368537903,
					1
				],
				"metallicFactor":0,
				"roughnessFactor":0.4000000059604645
			}
		}
	],
	"meshes":[
		{
			"name":"Curve.001",
			"primitives":[
				{
					"attributes":{
						"POSITION":0,
						"NORMAL":1,
						"TEXCOORD_0":2
					},
					"indices":3,
					"material":0
				}
			]
		}
	],
	"accessors":[
		{
			"bufferView":0,
			"componentType":5126,
			"count":1673,
			"max":[
				0.07285413146018982,
				0.4911392331123352,
				0.08449072390794754
			],
			"min":[
				-0.09177980571985245,
				0.14113923907279968,
				-0.10610146075487137
			],
			"type":"VEC3"
		},
		{
			"bufferView":1,
			"componentType":5126,
			"count":1673,
			"type":"VEC3"
		},
		{
			"bufferView":2,
			"componentType":5126,
			"count":1673,
			"type":"VEC2"
		},
		{
			"bufferView":3,
			"componentType":5123,
			"count":3588,
			"type":"SCALAR"
		}
	],
	"bufferViews":[
		{
			"buffer":0,
			"byteLength":20076,
			"byteOffset":0,
			"target":34962
		},
		{
			"buffer":0,
			"byteLength":20076,
			"byteOffset":20076,
			"target":34962
		},
		{
			"buffer":0,
			"byteLength":13384,
			"byteOffset":40152,
			"target":34962
		},
		{
			"buffer":0,
			"byteLength":7176,
			"byteOffset":53536,
			"target":34963
		}
	],
	"buffers":[
		{
			"byteLength":60712,
			"uri":"corchea.bin"
		}
	]
}
