{
	"asset":{
		"generator":"Khronos glTF Blender I/O v4.1.63",
		"version":"2.0"
	},
	"scene":0,
	"scenes":[
		{
			"name":"Scene",
			"nodes":[
				0
			]
		}
	],
	"nodes":[
		{
			"mesh":0,
			"name":"Curve.001",
			"rotation":[
				0.7016115188598633,
				0.09631410986185074,
				-0.0756053552031517,
				0.7019606828689575
			],
			"scale":[
				8.832803726196289,
				0.5237414240837097,
				9.10531234741211
			],
			"translation":[
				2.537668228149414,
				1.7023719549179077,
				-0.390431672334671
			]
		}
	],
	"meshes":[
		{
			"name":"Curve.002",
			"primitives":[
				{
					"attributes":{
						"POSITION":0,
						"NORMAL":1,
						"TEXCOORD_0":2
					},
					"indices":3
				}
			]
		}
	],
	"accessors":[
		{
			"bufferView":0,
			"componentType":5126,
			"count":3756,
			"max":[
				0.14769302308559418,
				0.4454295337200165,
				0.17009186744689941
			],
			"min":[
				-0.19377349317073822,
				-1.9717166423797607,
				-0.18319202959537506
			],
			"type":"VEC3"
		},
		{
			"bufferView":1,
			"componentType":5126,
			"count":3756,
			"type":"VEC3"
		},
		{
			"bufferView":2,
			"componentType":5126,
			"count":3756,
			"type":"VEC2"
		},
		{
			"bufferView":3,
			"componentType":5123,
			"count":7056,
			"type":"SCALAR"
		}
	],
	"bufferViews":[
		{
			"buffer":0,
			"byteLength":45072,
			"byteOffset":0,
			"target":34962
		},
		{
			"buffer":0,
			"byteLength":45072,
			"byteOffset":45072,
			"target":34962
		},
		{
			"buffer":0,
			"byteLength":30048,
			"byteOffset":90144,
			"target":34962
		},
		{
			"buffer":0,
			"byteLength":14112,
			"byteOffset":120192,
			"target":34963
		}
	],
	"buffers":[
		{
			"byteLength":134304,
			"uri":"musica.bin"
		}
	]
}
