{
	"asset":{
		"generator":"Khronos glTF Blender I/O v4.1.63",
		"version":"2.0"
	},
	"scene":0,
	"scenes":[
		{
			"name":"Scene",
			"nodes":[
				0,
				1
			]
		}
	],
	"nodes":[
		{
			"mesh":0,
			"name":"Curve.001",
			"rotation":[
				0.7016115188598633,
				0.09631410986185074,
				-0.0756053552031517,
				0.7019606828689575
			],
			"scale":[
				8.832803726196289,
				0.5237414240837097,
				9.10531234741211
			],
			"translation":[
				2.516305923461914,
				1.7023719549179077,
				-0.390431672334671
			]
		},
		{
			"mesh":1,
			"name":"Curve",
			"rotation":[
				0.07171985507011414,
				0.7173957228660583,
				-0.6889281868934631,
				0.07468343526124954
			],
			"scale":[
				13.917561531066895,
				1,
				13.747126579284668
			],
			"translation":[
				2.516305923461914,
				1.7023720741271973,
				-0.3904317319393158
			]
		}
	],
	"materials":[
		{
			"doubleSided":true,
			"name":"SVGMat.002",
			"pbrMetallicRoughness":{
				"baseColorFactor":[
					0.19665703177452087,
					0.19839008152484894,
					0.20364314317703247,
					1
				],
				"metallicFactor":0,
				"roughnessFactor":0.4000000059604645
			}
		},
		{
			"doubleSided":true,
			"name":"SVGMat.001",
			"pbrMetallicRoughness":{
				"baseColorFactor":[
					0.25271210074424744,
					0.24038933217525482,
					0.24038933217525482,
					1
				],
				"metallicFactor":0,
				"roughnessFactor":0.4000000059604645
			}
		}
	],
	"meshes":[
		{
			"name":"Curve.002",
			"primitives":[
				{
					"attributes":{
						"POSITION":0,
						"NORMAL":1,
						"TEXCOORD_0":2
					},
					"indices":3,
					"material":0
				}
			]
		},
		{
			"name":"Curve.001",
			"primitives":[
				{
					"attributes":{
						"POSITION":4,
						"NORMAL":5,
						"TEXCOORD_0":6
					},
					"indices":7,
					"material":1
				}
			]
		}
	],
	"accessors":[
		{
			"bufferView":0,
			"componentType":5126,
			"count":1702,
			"max":[
				0.14769302308559418,
				0.00013577938079833984,
				0.004919528961181641
			],
			"min":[
				-0.02164377272129059,
				-0.3498642146587372,
				-0.18319202959537506
			],
			"type":"VEC3"
		},
		{
			"bufferView":1,
			"componentType":5126,
			"count":1702,
			"type":"VEC3"
		},
		{
			"bufferView":2,
			"componentType":5126,
			"count":1702,
			"type":"VEC2"
		},
		{
			"bufferView":3,
			"componentType":5123,
			"count":3468,
			"type":"SCALAR"
		},
		{
			"bufferView":4,
			"componentType":5126,
			"count":1666,
			"max":[
				0.13379181921482086,
				0.257443904876709,
				0.11293774098157883
			],
			"min":[
				-0.030842117965221405,
				-0.09255608916282654,
				-0.07765444368124008
			],
			"type":"VEC3"
		},
		{
			"bufferView":5,
			"componentType":5126,
			"count":1666,
			"type":"VEC3"
		},
		{
			"bufferView":6,
			"componentType":5126,
			"count":1666,
			"type":"VEC2"
		},
		{
			"bufferView":7,
			"componentType":5123,
			"count":3588,
			"type":"SCALAR"
		}
	],
	"bufferViews":[
		{
			"buffer":0,
			"byteLength":20424,
			"byteOffset":0,
			"target":34962
		},
		{
			"buffer":0,
			"byteLength":20424,
			"byteOffset":20424,
			"target":34962
		},
		{
			"buffer":0,
			"byteLength":13616,
			"byteOffset":40848,
			"target":34962
		},
		{
			"buffer":0,
			"byteLength":6936,
			"byteOffset":54464,
			"target":34963
		},
		{
			"buffer":0,
			"byteLength":19992,
			"byteOffset":61400,
			"target":34962
		},
		{
			"buffer":0,
			"byteLength":19992,
			"byteOffset":81392,
			"target":34962
		},
		{
			"buffer":0,
			"byteLength":13328,
			"byteOffset":101384,
			"target":34962
		},
		{
			"buffer":0,
			"byteLength":7176,
			"byteOffset":114712,
			"target":34963
		}
	],
	"buffers":[
		{
			"byteLength":121888,
			"uri":"music.bin"
		}
	]
}
