{
	"asset":{
		"generator":"Khronos glTF Blender I/O v4.1.63",
		"version":"2.0"
	},
	"scene":0,
	"scenes":[
		{
			"name":"Scene",
			"nodes":[
				0
			]
		}
	],
	"nodes":[
		{
			"mesh":0,
			"name":"Text",
			"rotation":[
				0.6951264142990112,
				-0.012133477255702019,
				-0.012544531375169754,
				0.7186756730079651
			],
			"translation":[
				0.3391745090484619,
				0.04275352507829666,
				0
			]
		}
	],
	"materials":[
		{
			"doubleSided":true,
			"name":"Material.001",
			"pbrMetallicRoughness":{
				"baseColorFactor":[
					0.800000011920929,
					0.800000011920929,
					0.800000011920929,
					1
				],
				"metallicFactor":0,
				"roughnessFactor":0.5
			}
		}
	],
	"meshes":[
		{
			"name":"Text",
			"primitives":[
				{
					"attributes":{
						"POSITION":0,
						"NORMAL":1,
						"TEXCOORD_0":2
					},
					"indices":3,
					"material":0
				}
			]
		}
	],
	"accessors":[
		{
			"bufferView":0,
			"componentType":5126,
			"count":40890,
			"max":[
				1.4723707437515259,
				0.12503761053085327,
				0.5601266026496887
			],
			"min":[
				-1.233195424079895,
				-0.05529119446873665,
				-0.7035074830055237
			],
			"type":"VEC3"
		},
		{
			"bufferView":1,
			"componentType":5126,
			"count":40890,
			"type":"VEC3"
		},
		{
			"bufferView":2,
			"componentType":5126,
			"count":40890,
			"type":"VEC2"
		},
		{
			"bufferView":3,
			"componentType":5123,
			"count":81384,
			"type":"SCALAR"
		}
	],
	"bufferViews":[
		{
			"buffer":0,
			"byteLength":490680,
			"byteOffset":0,
			"target":34962
		},
		{
			"buffer":0,
			"byteLength":490680,
			"byteOffset":490680,
			"target":34962
		},
		{
			"buffer":0,
			"byteLength":327120,
			"byteOffset":981360,
			"target":34962
		},
		{
			"buffer":0,
			"byteLength":162768,
			"byteOffset":1308480,
			"target":34963
		}
	],
	"buffers":[
		{
			"byteLength":1471248,
			"uri":"nombre.bin"
		}
	]
}
