{
	"asset":{
		"generator":"Khronos glTF Blender I/O v4.1.63",
		"version":"2.0"
	},
	"scene":0,
	"scenes":[
		{
			"name":"Scene",
			"nodes":[
				0
			]
		}
	],
	"nodes":[
		{
			"mesh":0,
			"name":"Curve",
			"rotation":[
				0.6628270745277405,
				0.030706729739904404,
				-0.027223069220781326,
				0.747647225856781
			],
			"scale":[
				7.497898101806641,
				0.44458818435668945,
				7.729222297668457
			],
			"translation":[
				1.0979186296463013,
				1.0325281620025635,
				-0.052257031202316284
			]
		}
	],
	"materials":[
		{
			"doubleSided":true,
			"name":"SVGMat",
			"pbrMetallicRoughness":{
				"baseColorFactor":[
					0.011612244881689548,
					0.020288562402129173,
					0.07227185368537903,
					1
				],
				"metallicFactor":0,
				"roughnessFactor":0.4000000059604645
			}
		}
	],
	"meshes":[
		{
			"name":"Curve",
			"primitives":[
				{
					"attributes":{
						"POSITION":0,
						"NORMAL":1,
						"TEXCOORD_0":2
					},
					"indices":3,
					"material":0
				}
			]
		}
	],
	"accessors":[
		{
			"bufferView":0,
			"componentType":5126,
			"count":1669,
			"max":[
				0.05112941563129425,
				0.18837621808052063,
				0.11462387442588806
			],
			"min":[
				-0.11820738017559052,
				-0.1616237759590149,
				-0.07348768413066864
			],
			"type":"VEC3"
		},
		{
			"bufferView":1,
			"componentType":5126,
			"count":1669,
			"type":"VEC3"
		},
		{
			"bufferView":2,
			"componentType":5126,
			"count":1669,
			"type":"VEC2"
		},
		{
			"bufferView":3,
			"componentType":5123,
			"count":3468,
			"type":"SCALAR"
		}
	],
	"bufferViews":[
		{
			"buffer":0,
			"byteLength":20028,
			"byteOffset":0,
			"target":34962
		},
		{
			"buffer":0,
			"byteLength":20028,
			"byteOffset":20028,
			"target":34962
		},
		{
			"buffer":0,
			"byteLength":13352,
			"byteOffset":40056,
			"target":34962
		},
		{
			"buffer":0,
			"byteLength":6936,
			"byteOffset":53408,
			"target":34963
		}
	],
	"buffers":[
		{
			"byteLength":60344,
			"uri":"semicorchea.bin"
		}
	]
}
